<svg xmlns="http://www.w3.org/2000/svg" xmlns:xlink="http://www.w3.org/1999/xlink" id="processonSvg1000" viewBox="-2.401756724076236 121.80600418030707 1061.0311372697436 787.3481753379372" width="1061.0311372697436" height="787.3481753379372"><defs id="ProcessOnDefs1001"><marker id="ProcessOnMarker1029" markerUnits="userSpaceOnUse" orient="auto" markerWidth="16.23606797749979" markerHeight="10.550836550532098" viewBox="-1.0 -1.3763819204711736 16.23606797749979 10.550836550532098" refX="-1.0" refY="3.8990363547948754"><path id="ProcessOnPath1030" d="M12.0 3.8990363547948754L0.0 7.798072709589751V0.0Z" stroke="#323232" stroke-width="2.0" fill="#323232" transform="matrix(1.0,0.0,0.0,1.0,0.0,0.0)"/></marker><marker id="ProcessOnMarker1033" markerUnits="userSpaceOnUse" orient="auto" markerWidth="16.23606797749979" markerHeight="10.550836550532098" viewBox="-1.0 -1.3763819204711736 16.23606797749979 10.550836550532098" refX="-1.0" refY="3.8990363547948754"><path id="ProcessOnPath1034" d="M12.0 3.8990363547948754L0.0 7.798072709589751V0.0Z" stroke="#323232" stroke-width="2.0" fill="#323232" transform="matrix(1.0,0.0,0.0,1.0,0.0,0.0)"/></marker><marker id="ProcessOnMarker1039" markerUnits="userSpaceOnUse" orient="auto" markerWidth="16.23606797749979" markerHeight="10.550836550532098" viewBox="-1.0 -1.3763819204711736 16.23606797749979 10.550836550532098" refX="-1.0" refY="3.8990363547948754"><path id="ProcessOnPath1040" d="M12.0 3.8990363547948754L0.0 7.798072709589751V0.0Z" stroke="#323232" stroke-width="2.0" fill="#323232" transform="matrix(1.0,0.0,0.0,1.0,0.0,0.0)"/></marker><marker id="ProcessOnMarker1047" markerUnits="userSpaceOnUse" orient="auto" markerWidth="16.23606797749979" markerHeight="10.550836550532098" viewBox="-1.0 -1.3763819204711736 16.23606797749979 10.550836550532098" refX="-1.0" refY="3.8990363547948754"><path id="ProcessOnPath1048" d="M12.0 3.8990363547948754L0.0 7.798072709589751V0.0Z" stroke="#323232" stroke-width="2.0" fill="#323232" transform="matrix(1.0,0.0,0.0,1.0,0.0,0.0)"/></marker><marker id="ProcessOnMarker1051" markerUnits="userSpaceOnUse" orient="auto" markerWidth="16.23606797749979" markerHeight="10.550836550532098" viewBox="-1.0 -1.3763819204711736 16.23606797749979 10.550836550532098" refX="-1.0" refY="3.8990363547948754"><path id="ProcessOnPath1052" d="M12.0 3.8990363547948754L0.0 7.798072709589751V0.0Z" stroke="#323232" stroke-width="2.0" fill="#323232" transform="matrix(1.0,0.0,0.0,1.0,0.0,0.0)"/></marker><marker id="ProcessOnMarker1055" markerUnits="userSpaceOnUse" orient="auto" markerWidth="16.23606797749979" markerHeight="10.550836550532098" viewBox="-1.0 -1.3763819204711736 16.23606797749979 10.550836550532098" refX="-1.0" refY="3.8990363547948754"><path id="ProcessOnPath1056" d="M12.0 3.8990363547948754L0.0 7.798072709589751V0.0Z" stroke="#323232" stroke-width="2.0" fill="#323232" transform="matrix(1.0,0.0,0.0,1.0,0.0,0.0)"/></marker><marker id="ProcessOnMarker1063" markerUnits="userSpaceOnUse" orient="auto" markerWidth="16.23606797749979" markerHeight="10.550836550532098" viewBox="-1.0 -1.3763819204711736 16.23606797749979 10.550836550532098" refX="-1.0" refY="3.8990363547948754"><path id="ProcessOnPath1064" d="M12.0 3.8990363547948754L0.0 7.798072709589751V0.0Z" stroke="#323232" stroke-width="2.0" fill="#323232" transform="matrix(1.0,0.0,0.0,1.0,0.0,0.0)"/></marker><marker id="ProcessOnMarker1071" markerUnits="userSpaceOnUse" orient="auto" markerWidth="16.23606797749979" markerHeight="10.550836550532098" viewBox="-1.0 -1.3763819204711736 16.23606797749979 10.550836550532098" refX="-1.0" refY="3.8990363547948754"><path id="ProcessOnPath1072" d="M12.0 3.8990363547948754L0.0 7.798072709589751V0.0Z" stroke="#323232" stroke-width="2.0" fill="#323232" transform="matrix(1.0,0.0,0.0,1.0,0.0,0.0)"/></marker><marker id="ProcessOnMarker1075" markerUnits="userSpaceOnUse" orient="auto" markerWidth="16.23606797749979" markerHeight="10.550836550532098" viewBox="-1.0 -1.3763819204711736 16.23606797749979 10.550836550532098" refX="-1.0" refY="3.8990363547948754"><path id="ProcessOnPath1076" d="M12.0 3.8990363547948754L0.0 7.798072709589751V0.0Z" stroke="#323232" stroke-width="2.0" fill="#323232" transform="matrix(1.0,0.0,0.0,1.0,0.0,0.0)"/></marker><marker id="ProcessOnMarker1079" markerUnits="userSpaceOnUse" orient="auto" markerWidth="16.23606797749979" markerHeight="10.550836550532098" viewBox="-1.0 -1.3763819204711736 16.23606797749979 10.550836550532098" refX="-1.0" refY="3.8990363547948754"><path id="ProcessOnPath1080" d="M12.0 3.8990363547948754L0.0 7.798072709589751V0.0Z" stroke="#323232" stroke-width="2.0" fill="#323232" transform="matrix(1.0,0.0,0.0,1.0,0.0,0.0)"/></marker><marker id="ProcessOnMarker1083" markerUnits="userSpaceOnUse" orient="auto" markerWidth="16.23606797749979" markerHeight="10.550836550532098" viewBox="-1.0 -1.3763819204711736 16.23606797749979 10.550836550532098" refX="-1.0" refY="3.8990363547948754"><path id="ProcessOnPath1084" d="M12.0 3.8990363547948754L0.0 7.798072709589751V0.0Z" stroke="#323232" stroke-width="2.0" fill="#323232" transform="matrix(1.0,0.0,0.0,1.0,0.0,0.0)"/></marker><marker id="ProcessOnMarker1087" markerUnits="userSpaceOnUse" orient="auto" markerWidth="16.23606797749979" markerHeight="10.550836550532098" viewBox="-1.0 -1.3763819204711736 16.23606797749979 10.550836550532098" refX="-1.0" refY="3.8990363547948754"><path id="ProcessOnPath1088" d="M12.0 3.8990363547948754L0.0 7.798072709589751V0.0Z" stroke="#323232" stroke-width="2.0" fill="#323232" transform="matrix(1.0,0.0,0.0,1.0,0.0,0.0)"/></marker><marker id="ProcessOnMarker1181" markerUnits="userSpaceOnUse" orient="auto" markerWidth="16.23606797749979" markerHeight="10.550836550532098" viewBox="-1.0 -1.3763819204711736 16.23606797749979 10.550836550532098" refX="-1.0" refY="3.8990363547948754"><path id="ProcessOnPath1182" d="M12.0 3.8990363547948754L0.0 7.798072709589751V0.0Z" stroke="#323232" stroke-width="2.0" fill="#323232" transform="matrix(1.0,0.0,0.0,1.0,0.0,0.0)"/></marker><marker id="ProcessOnMarker1185" markerUnits="userSpaceOnUse" orient="auto" markerWidth="16.23606797749979" markerHeight="10.550836550532098" viewBox="-1.0 -1.3763819204711736 16.23606797749979 10.550836550532098" refX="15.23606797749979" refY="3.8990363547948754"><path id="ProcessOnPath1186" d="M12.0 3.8990363547948754L0.0 7.798072709589751V0.0Z" stroke="#323232" stroke-width="2.0" fill="#323232" transform="matrix(-1.0,1.2246467991473532E-16,-1.2246467991473532E-16,-1.0,14.23606797749979,7.798072709589751)"/></marker><marker id="ProcessOnMarker1193" markerUnits="userSpaceOnUse" orient="auto" markerWidth="16.23606797749979" markerHeight="10.550836550532098" viewBox="-1.0 -1.3763819204711736 16.23606797749979 10.550836550532098" refX="15.23606797749979" refY="3.8990363547948754"><path id="ProcessOnPath1194" d="M12.0 3.8990363547948754L0.0 7.798072709589751V0.0Z" stroke="#323232" stroke-width="2.0" fill="#323232" transform="matrix(-1.0,1.2246467991473532E-16,-1.2246467991473532E-16,-1.0,14.23606797749979,7.798072709589751)"/></marker><marker id="ProcessOnMarker1197" markerUnits="userSpaceOnUse" orient="auto" markerWidth="16.23606797749979" markerHeight="10.550836550532098" viewBox="-1.0 -1.3763819204711736 16.23606797749979 10.550836550532098" refX="15.23606797749979" refY="3.8990363547948754"><path id="ProcessOnPath1198" d="M12.0 3.8990363547948754L0.0 7.798072709589751V0.0Z" stroke="#323232" stroke-width="2.0" fill="#323232" transform="matrix(-1.0,1.2246467991473532E-16,-1.2246467991473532E-16,-1.0,14.23606797749979,7.798072709589751)"/></marker><marker id="ProcessOnMarker1201" markerUnits="userSpaceOnUse" orient="auto" markerWidth="16.23606797749979" markerHeight="10.550836550532098" viewBox="-1.0 -1.3763819204711736 16.23606797749979 10.550836550532098" refX="-1.0" refY="3.8990363547948754"><path id="ProcessOnPath1202" d="M12.0 3.8990363547948754L0.0 7.798072709589751V0.0Z" stroke="#323232" stroke-width="2.0" fill="#323232" transform="matrix(1.0,0.0,0.0,1.0,0.0,0.0)"/></marker><marker id="ProcessOnMarker1205" markerUnits="userSpaceOnUse" orient="auto" markerWidth="16.23606797749979" markerHeight="10.550836550532098" viewBox="-1.0 -1.3763819204711736 16.23606797749979 10.550836550532098" refX="-1.0" refY="3.8990363547948754"><path id="ProcessOnPath1206" d="M12.0 3.8990363547948754L0.0 7.798072709589751V0.0Z" stroke="#323232" stroke-width="2.0" fill="#323232" transform="matrix(1.0,0.0,0.0,1.0,0.0,0.0)"/></marker><marker id="ProcessOnMarker1249" markerUnits="userSpaceOnUse" orient="auto" markerWidth="16.23606797749979" markerHeight="10.550836550532098" viewBox="-1.0 -1.3763819204711736 16.23606797749979 10.550836550532098" refX="15.23606797749979" refY="3.8990363547948754"><path id="ProcessOnPath1250" d="M12.0 3.8990363547948754L0.0 7.798072709589751V0.0Z" stroke="#323232" stroke-width="2.0" fill="#323232" transform="matrix(-1.0,1.2246467991473532E-16,-1.2246467991473532E-16,-1.0,14.23606797749979,7.798072709589751)"/></marker></defs><g id="ProcessOnG1002"><path id="ProcessOnPath1003" d="M-2.401756724076236 121.80600418030707H1058.6293805456673V909.1541795182443H-2.401756724076222V121.80600418030713Z" fill="none"/><g id="ProcessOnG1004"><g id="ProcessOnG1005" transform="matrix(1.0,0.0,0.0,1.0,17.598243275923764,554.1741889618609)" opacity="1.0"><path id="ProcessOnPath1006" d="M0.0 0.0L1008.9418805456673 0.0L0.0 0.0M0.0 106.1889312486935L1008.9418805456673 106.1889312486935L0.0 106.1889312486935Z" stroke="#323232" stroke-width="2.0" stroke-dasharray="2.0 3.0" opacity="1.0" fill="#ffffff"/><path id="ProcessOnPath1007" d="M0.0 0.0L1008.9418805456673 0.0L1008.9418805456673 106.1889312486935L0.0 106.1889312486935L0.0 0.0Z" stroke="none" stroke-width="0.0" stroke-dasharray="0.0 0.0" opacity="1.0" fill="none"/></g><g id="ProcessOnG1008" transform="matrix(1.0,0.0,0.0,1.0,22.637222687535186,243.75769374214184)" opacity="1.0"><path id="ProcessOnPath1009" d="M0.0 0.0L1011.1293805456673 0.0L0.0 0.0M0.0 194.81445386328295L1011.1293805456673 194.81445386328295L0.0 194.81445386328295Z" stroke="#323232" stroke-width="2.0" stroke-dasharray="2.0 3.0" opacity="1.0" fill="#ffffff"/><path id="ProcessOnPath1010" d="M0.0 0.0L1011.1293805456673 0.0L1011.1293805456673 194.81445386328295L0.0 194.81445386328295L0.0 0.0Z" stroke="none" stroke-width="0.0" stroke-dasharray="0.0 0.0" opacity="1.0" fill="none"/></g><g id="ProcessOnG1011" transform="matrix(1.0,0.0,0.0,1.0,480.7183185542,674.8719026966328)" opacity="1.0"><path id="ProcessOnPath1012" d="M0.0 35.80935605616002C0.0 -11.936452018720006 71.20810737678728 -11.936452018720006 71.20810737678728 35.80935605616002C71.20810737678728 83.55516413104004 0.0 83.55516413104004 0.0 35.80935605616002Z" stroke="none" stroke-width="0.0" stroke-dasharray="none" opacity="1.0" fill="#99ff33"/></g><g id="ProcessOnG1013" transform="matrix(1.0,0.0,0.0,1.0,480.7183185542,568.5711635485884)" opacity="1.0"><path id="ProcessOnPath1014" d="M0.0 35.77282115442716C0.0 -11.924273718142388 71.20810737678728 -11.924273718142388 71.20810737678728 35.77282115442716C71.20810737678728 83.46991602699671 0.0 83.46991602699671 0.0 35.77282115442716Z" stroke="none" stroke-width="0.0" stroke-dasharray="none" opacity="1.0" fill="#99ff33"/></g><g id="ProcessOnG1015" transform="matrix(1.0,0.0,0.0,1.0,519.7944139360047,464.6981361454732)" opacity="1.0"><path id="ProcessOnPath1016" d="M0.0 35.87586831316092C0.0 -11.95862277105364 71.20810737678728 -11.95862277105364 71.20810737678728 35.87586831316092C71.20810737678728 83.71035939737548 0.0 83.71035939737548 0.0 35.87586831316092Z" stroke="none" stroke-width="0.0" stroke-dasharray="none" opacity="1.0" fill="#8a8a8a"/></g><g id="ProcessOnG1017" transform="matrix(1.0,0.0,0.0,1.0,650.9410049900323,338.13192716877427)" opacity="1.0"><path id="ProcessOnPath1018" d="M0.0 35.87586831316092C0.0 -11.95862277105364 71.20810737678728 -11.95862277105364 71.20810737678728 35.87586831316092C71.20810737678728 83.71035939737548 0.0 83.71035939737548 0.0 35.87586831316092Z" stroke="none" stroke-width="0.0" stroke-dasharray="none" opacity="1.0" fill="#cc6600"/></g><g id="ProcessOnG1019" transform="matrix(1.0,0.0,0.0,1.0,435.19193040775406,141.80600418030707)" opacity="1.0"><path id="ProcessOnPath1020" d="M0.0 35.87586831316092C0.0 -11.95862277105364 71.20810737678728 -11.95862277105364 71.20810737678728 35.87586831316092C71.20810737678728 83.71035939737548 0.0 83.71035939737548 0.0 35.87586831316092Z" stroke="none" stroke-width="0.0" stroke-dasharray="none" opacity="1.0" fill="#66ffff"/><g id="ProcessOnG1021" transform="matrix(1.0,0.0,0.0,1.0,10.0,19.62586831316092)"><text id="ProcessOnText1022" fill="#000000" font-size="26" x="24.60405368839364" y="26.65" font-family="微软雅黑" font-weight="bold" font-style="normal" text-decoration="none" family="微软雅黑" text-anchor="middle" size="26">L</text></g></g><g id="ProcessOnG1023" transform="matrix(1.0,0.0,0.0,1.0,616.2717933426809,143.67716625652605)" opacity="1.0"><path id="ProcessOnPath1024" d="M0.0 35.87586831316092C0.0 -11.95862277105364 71.20810737678728 -11.95862277105364 71.20810737678728 35.87586831316092C71.20810737678728 83.71035939737548 0.0 83.71035939737548 0.0 35.87586831316092Z" stroke="none" stroke-width="0.0" stroke-dasharray="none" opacity="1.0" fill="#3333ff"/><g id="ProcessOnG1025" transform="matrix(1.0,0.0,0.0,1.0,10.0,19.62586831316092)"><text id="ProcessOnText1026" fill="#000000" font-size="26" x="24.60405368839364" y="26.65" font-family="微软雅黑" font-weight="bold" font-style="normal" text-decoration="none" family="微软雅黑" text-anchor="middle" size="26">R</text></g></g><g id="ProcessOnG1027"><path id="ProcessOnPath1028" d="M555.3984676243983 464.6981361454732L475.66002847899904 227.99653714346556" stroke="#323232" stroke-width="2.0" stroke-dasharray="none" fill="none" marker-end="url(#ProcessOnMarker1029)"/></g><g id="ProcessOnG1031"><path id="ProcessOnPath1032" d="M555.3984676243983 464.6981361454732L646.3764072494072 229.63784124934125" stroke="#323232" stroke-width="2.0" stroke-dasharray="none" fill="none" marker-end="url(#ProcessOnMarker1033)"/></g><g id="ProcessOnG1035" transform="matrix(1.0,0.0,0.0,1.0,392.0024327108059,338.13192716877427)" opacity="1.0"><path id="ProcessOnPath1036" d="M0.0 35.87586831316092C0.0 -11.95862277105364 71.20810737678728 -11.95862277105364 71.20810737678728 35.87586831316092C71.20810737678728 83.71035939737548 0.0 83.71035939737548 0.0 35.87586831316092Z" stroke="none" stroke-width="0.0" stroke-dasharray="none" opacity="1.0" fill="#99ff33"/></g><g id="ProcessOnG1037"><path id="ProcessOnPath1038" d="M516.3223722425936 674.8719026966328L516.3223722425936 655.3528738349426" stroke="#323232" stroke-width="2.0" stroke-dasharray="none" fill="none" marker-end="url(#ProcessOnMarker1039)"/></g><g id="ProcessOnG1041" transform="matrix(1.0,0.0,0.0,1.0,566.7859689992838,674.8719026966328)" opacity="1.0"><path id="ProcessOnPath1042" d="M0.0 35.80935605616002C0.0 -11.936452018720006 71.20810737678728 -11.936452018720006 71.20810737678728 35.80935605616002C71.20810737678728 83.55516413104004 0.0 83.55516413104004 0.0 35.80935605616002Z" stroke="none" stroke-width="0.0" stroke-dasharray="none" opacity="1.0" fill="#cc6600"/></g><g id="ProcessOnG1043" transform="matrix(1.0,0.0,0.0,1.0,566.7859689992838,570.0536374458266)" opacity="1.0"><path id="ProcessOnPath1044" d="M0.0 35.77282115442716C0.0 -11.924273718142388 71.20810737678728 -11.924273718142388 71.20810737678728 35.77282115442716C71.20810737678728 83.46991602699671 0.0 83.46991602699671 0.0 35.77282115442716Z" stroke="none" stroke-width="0.0" stroke-dasharray="none" opacity="1.0" fill="#cc6600"/></g><g id="ProcessOnG1045"><path id="ProcessOnPath1046" d="M602.3900226876774 674.8719026966328L602.3900226876774 656.8353477321807" stroke="#323232" stroke-width="2.0" stroke-dasharray="none" fill="none" marker-end="url(#ProcessOnMarker1047)"/></g><g id="ProcessOnG1049"><path id="ProcessOnPath1050" d="M516.3223722425936 568.5711635485884L543.6285667917153 546.1249542600204" stroke="#323232" stroke-width="2.0" stroke-dasharray="none" fill="none" marker-end="url(#ProcessOnMarker1051)"/></g><g id="ProcessOnG1053"><path id="ProcessOnPath1054" d="M602.3900226876774 570.0536374458266L567.7917782682753 545.312356548895" stroke="#323232" stroke-width="2.0" stroke-dasharray="none" fill="none" marker-end="url(#ProcessOnMarker1055)"/></g><g id="ProcessOnG1057" transform="matrix(1.0,0.0,0.0,1.0,749.4382065838017,462.5658331466785)" opacity="0.2"><path id="ProcessOnPath1058" d="M0.0 35.87586831316092C0.0 -11.95862277105364 71.20810737678728 -11.95862277105364 71.20810737678728 35.87586831316092C71.20810737678728 83.71035939737548 0.0 83.71035939737548 0.0 35.87586831316092Z" stroke="#000000" stroke-width="2.0" stroke-dasharray="10.0 4.0" opacity="1.0" fill="#8a8a8a"/></g><g id="ProcessOnG1059" transform="matrix(1.0,0.0,0.0,1.0,298.67620977877436,464.46393041241777)" opacity="0.2"><path id="ProcessOnPath1060" d="M0.0 35.87586831316092C0.0 -11.95862277105364 71.20810737678728 -11.95862277105364 71.20810737678728 35.87586831316092C71.20810737678728 83.71035939737548 0.0 83.71035939737548 0.0 35.87586831316092Z" stroke="#000000" stroke-width="2.0" stroke-dasharray="10.0 4.0" opacity="1.0" fill="#8a8a8a"/></g><g id="ProcessOnG1061"><path id="ProcessOnPath1062" d="M334.28026346716797 464.46393041241777L414.45448566533435 417.5753894864741" stroke="#323232" stroke-width="2.0" stroke-dasharray="none" fill="none" marker-end="url(#ProcessOnMarker1063)"/></g><g id="ProcessOnG1065" transform="matrix(1.0,0.0,0.0,1.0,300.7854356578965,338.87316411739323)" opacity="0.2"><path id="ProcessOnPath1066" d="M0.0 35.87586831316092C0.0 -11.95862277105364 71.20810737678728 -11.95862277105364 71.20810737678728 35.87586831316092C71.20810737678728 83.71035939737548 0.0 83.71035939737548 0.0 35.87586831316092Z" stroke="#000000" stroke-width="2.0" stroke-dasharray="10.0 4.0" opacity="1.0" fill="#cc6600"/></g><g id="ProcessOnG1067" transform="matrix(1.0,0.0,0.0,1.0,745.836106762817,338.13192716877427)" opacity="0.2"><path id="ProcessOnPath1068" d="M0.0 35.87586831316092C0.0 -11.95862277105364 71.20810737678728 -11.95862277105364 71.20810737678728 35.87586831316092C71.20810737678728 83.71035939737548 0.0 83.71035939737548 0.0 35.87586831316092Z" stroke="#000000" stroke-width="2.0" stroke-dasharray="10.0 4.0" opacity="1.0" fill="#99ff33"/></g><g id="ProcessOnG1069"><path id="ProcessOnPath1070" d="M555.3984676243983 464.6981361454732L351.1813740735686 414.2770115895002" stroke="#323232" stroke-width="2.0" stroke-dasharray="none" fill="none" marker-end="url(#ProcessOnMarker1071)"/></g><g id="ProcessOnG1073"><path id="ProcessOnPath1074" d="M555.3984676243983 464.6981361454732L766.6332334823649 413.47430178217627" stroke="#323232" stroke-width="2.0" stroke-dasharray="none" fill="none" marker-end="url(#ProcessOnMarker1075)"/></g><g id="ProcessOnG1077"><path id="ProcessOnPath1078" d="M785.0422602721956 462.5658331466785L699.9801244548001 417.0695370892402" stroke="#323232" stroke-width="2.0" stroke-dasharray="none" fill="none" marker-end="url(#ProcessOnMarker1079)"/></g><g id="ProcessOnG1081"><path id="ProcessOnPath1082" d="M427.6064863991995 338.13192716877427L465.8051234824173 227.95319417737448" stroke="#323232" stroke-width="2.0" stroke-dasharray="none" fill="none" marker-end="url(#ProcessOnMarker1083)"/></g><g id="ProcessOnG1085"><path id="ProcessOnPath1086" d="M686.5450586784259 338.13192716877427L656.0185470836575 230.09095607090197" stroke="#323232" stroke-width="2.0" stroke-dasharray="none" fill="none" marker-end="url(#ProcessOnMarker1087)"/></g><g id="ProcessOnG1089" transform="matrix(1.0,0.0,0.0,1.0,507.34837142996014,586.9249164104684)" opacity="1.0"><path id="ProcessOnPath1090" d="M9.259628632286262 0.0L18.519257264572524 9.259628632286262L12.407902367263592 9.259628632286262L12.407902367263592 34.096899636475264L6.111354897308933 34.096899636475264L6.111354897308933 9.259628632286262L0.0 9.259628632286262L9.259628632286262 0.0Z" stroke="#323232" stroke-width="2.0" stroke-dasharray="none" opacity="1.0" fill="#000000"/></g><g id="ProcessOnG1091" transform="matrix(1.0,0.0,0.0,1.0,593.1321290583032,587.2446543319244)" opacity="1.0"><path id="ProcessOnPath1092" d="M9.259628632286262 0.0L18.519257264572524 9.259628632286262L12.407902367263592 9.259628632286262L12.407902367263592 34.096899636475264L6.111354897308933 34.096899636475264L6.111354897308933 9.259628632286262L0.0 9.259628632286262L9.259628632286262 0.0Z" stroke="#323232" stroke-width="2.0" stroke-dasharray="none" opacity="1.0" fill="#000000"/></g><g id="ProcessOnG1093" transform="matrix(1.0,0.0,0.0,1.0,507.3483714299602,694.4544252007177)" opacity="1.0"><path id="ProcessOnPath1094" d="M9.259628632286262 0.0L18.519257264572524 9.259628632286262L12.407902367263592 9.259628632286262L12.407902367263592 34.096899636475264L6.111354897308933 34.096899636475264L6.111354897308933 9.259628632286262L0.0 9.259628632286262L9.259628632286262 0.0Z" stroke="#323232" stroke-width="2.0" stroke-dasharray="none" opacity="1.0" fill="#000000"/></g><g id="ProcessOnG1095" transform="matrix(1.0,0.0,0.0,1.0,594.9104349315305,693.8981017986758)" opacity="1.0"><path id="ProcessOnPath1096" d="M9.259628632286262 0.0L18.519257264572524 9.259628632286262L12.407902367263592 9.259628632286262L12.407902367263592 34.096899636475264L6.111354897308933 34.096899636475264L6.111354897308933 9.259628632286262L0.0 9.259628632286262L9.259628632286262 0.0Z" stroke="#323232" stroke-width="2.0" stroke-dasharray="none" opacity="1.0" fill="#000000"/></g><g id="ProcessOnG1097" transform="matrix(1.0,0.0,0.0,1.0,546.1377366752231,483.88485230355866)" opacity="1.0"><path id="ProcessOnPath1098" d="M9.259628632286262 0.0L18.519257264572524 9.259628632286262L12.407902367263592 9.259628632286262L12.407902367263592 34.096899636475264L6.111354897308933 34.096899636475264L6.111354897308933 9.259628632286262L0.0 9.259628632286262L9.259628632286262 0.0Z" stroke="#323232" stroke-width="2.0" stroke-dasharray="none" opacity="1.0" fill="#000000"/></g><g id="ProcessOnG1099" transform="matrix(-1.8369701987210297E-16,-1.0,1.0,-1.8369701987210297E-16,409.6632434675202,383.0368224627575)" opacity="1.0"><path id="ProcessOnPath1100" d="M9.259628632286262 0.0L18.519257264572524 9.259628632286262L12.407902367263592 9.259628632286262L12.407902367263592 34.096899636475264L6.111354897308933 34.096899636475264L6.111354897308933 9.259628632286262L0.0 9.259628632286262L9.259628632286262 0.0Z" stroke="#323232" stroke-width="2.0" stroke-dasharray="none" opacity="1.0" fill="#000000"/></g><g id="ProcessOnG1101" transform="matrix(6.123233995736766E-17,1.0,-1.0,6.123233995736766E-17,703.7737926625464,365.4163944857495)" opacity="1.0"><path id="ProcessOnPath1102" d="M9.259628632286262 0.0L18.519257264572524 9.259628632286262L12.407902367263592 9.259628632286262L12.407902367263592 34.096899636475264L6.111354897308933 34.096899636475264L6.111354897308933 9.259628632286262L0.0 9.259628632286262L9.259628632286262 0.0Z" stroke="#323232" stroke-width="2.0" stroke-dasharray="none" opacity="1.0" fill="#000000"/></g><g id="ProcessOnG1103" transform="matrix(0.7071067811865476,0.7071067811865475,-0.7071067811865475,0.7071067811865476,341.6242455679028,354.59147565683907)" opacity="0.2"><path id="ProcessOnPath1104" d="M9.259628632286262 0.0L18.519257264572524 9.259628632286262L12.407902367263592 9.259628632286262L12.407902367263592 34.096899636475264L6.111354897308933 34.096899636475264L6.111354897308933 9.259628632286262L0.0 9.259628632286262L9.259628632286262 0.0Z" stroke="#323232" stroke-width="2.0" stroke-dasharray="none" opacity="1.0" fill="#000000"/></g><g id="ProcessOnG1105" transform="matrix(0.7071067811865474,-0.7071067811865477,0.7071067811865477,0.7071067811865474,762.4820950824966,367.01244608548325)" opacity="0.2"><path id="ProcessOnPath1106" d="M9.259628632286262 0.0L18.519257264572524 9.259628632286262L12.407902367263592 9.259628632286262L12.407902367263592 34.096899636475264L6.111354897308933 34.096899636475264L6.111354897308933 9.259628632286262L0.0 9.259628632286262L9.259628632286262 0.0Z" stroke="#323232" stroke-width="2.0" stroke-dasharray="none" opacity="1.0" fill="#000000"/></g><g id="ProcessOnG1107" transform="matrix(0.7071067811865474,-0.7071067811865477,0.7071067811865477,0.7071067811865474,315.61114255700954,493.8458231371005)" opacity="0.2"><path id="ProcessOnPath1108" d="M9.259628632286262 0.0L18.519257264572524 9.259628632286262L12.407902367263592 9.259628632286262L12.407902367263592 34.096899636475264L6.111354897308933 34.096899636475264L6.111354897308933 9.259628632286262L0.0 9.259628632286262L9.259628632286262 0.0Z" stroke="#323232" stroke-width="2.0" stroke-dasharray="none" opacity="1.0" fill="#000000"/></g><g id="ProcessOnG1109" transform="matrix(0.7071067811865476,0.7071067811865475,-0.7071067811865475,0.7071067811865476,789.9745793490601,477.89005687957507)" opacity="0.2"><path id="ProcessOnPath1110" d="M9.259628632286262 0.0L18.519257264572524 9.259628632286262L12.407902367263592 9.259628632286262L12.407902367263592 34.096899636475264L6.111354897308933 34.096899636475264L6.111354897308933 9.259628632286262L0.0 9.259628632286262L9.259628632286262 0.0Z" stroke="#323232" stroke-width="2.0" stroke-dasharray="none" opacity="1.0" fill="#000000"/></g><g id="ProcessOnG1111" transform="matrix(1.0,0.0,0.0,1.0,285.94276714022453,817.4024428919224)" opacity="1.0"><path id="ProcessOnPath1112" d="M0.0 35.87586831316092C0.0 -11.95862277105364 71.20810737678728 -11.95862277105364 71.20810737678728 35.87586831316092C71.20810737678728 83.71035939737548 0.0 83.71035939737548 0.0 35.87586831316092Z" stroke="none" stroke-width="0.0" stroke-dasharray="none" opacity="1.0" fill="#006600"/></g><g id="ProcessOnG1113" transform="matrix(1.0,0.0,0.0,1.0,749.6246877340765,816.6052443889103)" opacity="1.0"><path id="ProcessOnPath1114" d="M0.0 35.87586831316092C0.0 -11.95862277105364 71.20810737678728 -11.95862277105364 71.20810737678728 35.87586831316092C71.20810737678728 83.71035939737548 0.0 83.71035939737548 0.0 35.87586831316092Z" stroke="none" stroke-width="0.0" stroke-dasharray="0.0 0.0" opacity="1.0" fill="#006600"/></g><g id="ProcessOnG1115" transform="matrix(0.7071067811865474,-0.7071067811865477,0.7071067811865477,0.7071067811865474,302.8201666407624,846.0583661215007)" opacity="1.0"><path id="ProcessOnPath1116" d="M9.259628632286262 0.0L18.519257264572524 9.259628632286262L12.407902367263592 9.259628632286262L12.407902367263592 34.096899636475264L6.111354897308933 34.096899636475264L6.111354897308933 9.259628632286262L0.0 9.259628632286262L9.259628632286262 0.0Z" stroke="#323232" stroke-width="2.0" stroke-dasharray="none" opacity="1.0" fill="#000000"/></g><g id="ProcessOnG1117" transform="matrix(0.7071067811865476,0.7071067811865475,-0.7071067811865475,0.7071067811865476,790.1027834451125,834.2639736675238)" opacity="1.0"><path id="ProcessOnPath1118" d="M9.259628632286262 0.0L18.519257264572524 9.259628632286262L12.407902367263592 9.259628632286262L12.407902367263592 34.096899636475264L6.111354897308933 34.096899636475264L6.111354897308933 9.259628632286262L0.0 9.259628632286262L9.259628632286262 0.0Z" stroke="#323232" stroke-width="2.0" stroke-dasharray="10.0 4.0" opacity="1.0" fill="#000000"/></g><g id="ProcessOnG1119" transform="matrix(1.0,0.0,0.0,1.0,426.8025824947865,820.9759587245065)" opacity="1.0"><path id="ProcessOnPath1120" d="M0.0 0.0L93.87155465095918 0.0L93.87155465095918 64.08045356359935L0.0 64.08045356359935Z" stroke="#323232" stroke-width="1.0" stroke-dasharray="none" opacity="1.0" fill="none"/><g id="ProcessOnG1121" transform="matrix(1.0,0.0,0.0,1.0,10.0,22.665226781799674)"><text id="ProcessOnText1122" fill="#000000" font-size="15" x="35.93577732547959" y="15.375" font-family="微软雅黑" font-weight="normal" font-style="normal" text-decoration="none" family="微软雅黑" text-anchor="middle" size="15">TN(right)</text></g></g><g id="ProcessOnG1123" transform="matrix(1.0,0.0,0.0,1.0,596.3241236822862,820.8935323338251)" opacity="1.0"><path id="ProcessOnPath1124" d="M0.0 0.0L86.1596958174905 0.0L86.1596958174905 64.24530634496236L0.0 64.24530634496236Z" stroke="#323232" stroke-width="1.0" stroke-dasharray="none" opacity="1.0" fill="none"/><g id="ProcessOnG1125" transform="matrix(1.0,0.0,0.0,1.0,10.0,22.74765317248118)"><text id="ProcessOnText1126" fill="#000000" font-size="15" x="32.07984790874525" y="15.375" font-family="微软雅黑" font-weight="normal" font-style="normal" text-decoration="none" family="微软雅黑" text-anchor="middle" size="15">TN(left)</text></g></g><g id="ProcessOnG1127" transform="matrix(1.0,0.0,0.0,1.0,409.8519607862679,195.95054996525118)" opacity="1.0"><path id="ProcessOnPath1128" d="M0.0 0.0L78.32699619771863 0.0L78.32699619771863 54.51116901996806L0.0 54.51116901996806Z" stroke="none" stroke-width="0.0" stroke-dasharray="none" opacity="1.0" fill="none"/><g id="ProcessOnG1129" transform="matrix(1.0,0.0,0.0,1.0,10.0,11.005584509984029)"><text id="ProcessOnText1130" fill="#000000" font-size="26" x="28.163498098859314" y="26.65" font-family="微软雅黑" font-weight="normal" font-style="normal" text-decoration="none" family="微软雅黑" text-anchor="middle" size="26">+</text></g></g><g id="ProcessOnG1131" transform="matrix(1.0,0.0,0.0,1.0,633.8731640498872,201.92396369775065)" opacity="1.0"><path id="ProcessOnPath1132" d="M0.0 0.0L78.32699619771863 0.0L78.32699619771863 54.51116901996806L0.0 54.51116901996806Z" stroke="none" stroke-width="0.0" stroke-dasharray="none" opacity="1.0" fill="none"/><g id="ProcessOnG1133" transform="matrix(1.0,0.0,0.0,1.0,10.0,11.005584509984029)"><text id="ProcessOnText1134" fill="#000000" font-size="26" x="28.163498098859314" y="26.65" font-family="微软雅黑" font-weight="normal" font-style="normal" text-decoration="none" family="微软雅黑" text-anchor="middle" size="26">+</text></g></g><g id="ProcessOnG1135" transform="matrix(1.0,0.0,0.0,1.0,452.154404966616,195.95054996525118)" opacity="1.0"><path id="ProcessOnPath1136" d="M0.0 0.0L78.32699619771863 0.0L78.32699619771863 54.51116901996806L0.0 54.51116901996806Z" stroke="none" stroke-width="0.0" stroke-dasharray="none" opacity="1.0" fill="none"/><g id="ProcessOnG1137" transform="matrix(1.0,0.0,0.0,1.0,10.0,11.005584509984029)"><text id="ProcessOnText1138" fill="#000000" font-size="26" x="28.163498098859314" y="26.65" font-family="微软雅黑" font-weight="normal" font-style="normal" text-decoration="none" family="微软雅黑" text-anchor="middle" size="26">-</text></g></g><g id="ProcessOnG1139" transform="matrix(1.0,0.0,0.0,1.0,592.0367001950779,194.55689503525343)" opacity="1.0"><path id="ProcessOnPath1140" d="M0.0 0.0L78.32699619771863 0.0L78.32699619771863 54.51116901996806L0.0 54.51116901996806Z" stroke="none" stroke-width="0.0" stroke-dasharray="none" opacity="1.0" fill="none"/><g id="ProcessOnG1141" transform="matrix(1.0,0.0,0.0,1.0,10.0,11.005584509984029)"><text id="ProcessOnText1142" fill="#000000" font-size="26" x="28.163498098859314" y="26.65" font-family="微软雅黑" font-weight="normal" font-style="normal" text-decoration="none" family="微软雅黑" text-anchor="middle" size="26">-</text></g></g><g id="ProcessOnG1143" transform="matrix(1.0,0.0,0.0,1.0,740.7025873449472,394.8935746301588)" opacity="1.0"><path id="ProcessOnPath1144" d="M0.0 0.0L78.32699619771863 0.0L78.32699619771863 54.51116901996806L0.0 54.51116901996806Z" stroke="none" stroke-width="0.0" stroke-dasharray="none" opacity="1.0" fill="none"/><g id="ProcessOnG1145" transform="matrix(1.0,0.0,0.0,1.0,10.0,11.005584509984029)"><text id="ProcessOnText1146" fill="#000000" font-size="26" x="28.163498098859314" y="26.65" font-family="微软雅黑" font-weight="normal" font-style="normal" text-decoration="none" family="微软雅黑" text-anchor="middle" size="26">-</text></g></g><g id="ProcessOnG1147" transform="matrix(1.0,0.0,0.0,1.0,300.7319290721615,392.5906592829642)" opacity="1.0"><path id="ProcessOnPath1148" d="M0.0 0.0L78.32699619771863 0.0L78.32699619771863 54.51116901996806L0.0 54.51116901996806Z" stroke="none" stroke-width="0.0" stroke-dasharray="none" opacity="1.0" fill="none"/><g id="ProcessOnG1149" transform="matrix(1.0,0.0,0.0,1.0,10.0,11.005584509984029)"><text id="ProcessOnText1150" fill="#000000" font-size="26" x="28.163498098859314" y="26.65" font-family="微软雅黑" font-weight="normal" font-style="normal" text-decoration="none" family="微软雅黑" text-anchor="middle" size="26">-</text></g></g><g id="ProcessOnG1151" transform="matrix(1.0,0.0,0.0,1.0,396.6173327232699,389.06645230373505)" opacity="1.0"><path id="ProcessOnPath1152" d="M0.0 0.0L78.32699619771863 0.0L78.32699619771863 54.51116901996806L0.0 54.51116901996806Z" stroke="none" stroke-width="0.0" stroke-dasharray="none" opacity="1.0" fill="none"/><g id="ProcessOnG1153" transform="matrix(1.0,0.0,0.0,1.0,10.0,11.005584509984029)"><text id="ProcessOnText1154" fill="#000000" font-size="26" x="28.163498098859314" y="26.65" font-family="微软雅黑" font-weight="normal" font-style="normal" text-decoration="none" family="微软雅黑" text-anchor="middle" size="26">-</text></g></g><g id="ProcessOnG1155" transform="matrix(1.0,0.0,0.0,1.0,639.3415292315775,386.1328510376639)" opacity="1.0"><path id="ProcessOnPath1156" d="M0.0 0.0L78.32699619771863 0.0L78.32699619771863 54.51116901996806L0.0 54.51116901996806Z" stroke="none" stroke-width="0.0" stroke-dasharray="none" opacity="1.0" fill="none"/><g id="ProcessOnG1157" transform="matrix(1.0,0.0,0.0,1.0,10.0,11.005584509984029)"><text id="ProcessOnText1158" fill="#000000" font-size="26" x="28.163498098859314" y="26.65" font-family="微软雅黑" font-weight="normal" font-style="normal" text-decoration="none" family="微软雅黑" text-anchor="middle" size="26">-</text></g></g><g id="ProcessOnG1159" transform="matrix(1.0,0.0,0.0,1.0,461.831211050266,617.8053193725282)" opacity="1.0"><path id="ProcessOnPath1160" d="M0.0 0.0L78.32699619771863 0.0L78.32699619771863 54.51116901996806L0.0 54.51116901996806Z" stroke="none" stroke-width="0.0" stroke-dasharray="none" opacity="1.0" fill="none"/><g id="ProcessOnG1161" transform="matrix(1.0,0.0,0.0,1.0,10.0,11.005584509984029)"><text id="ProcessOnText1162" fill="#000000" font-size="26" x="28.163498098859314" y="26.65" font-family="微软雅黑" font-weight="normal" font-style="normal" text-decoration="none" family="微软雅黑" text-anchor="middle" size="26">-</text></g></g><g id="ProcessOnG1163" transform="matrix(1.0,0.0,0.0,1.0,575.8948992631938,617.5619659394033)" opacity="1.0"><path id="ProcessOnPath1164" d="M0.0 0.0L78.32699619771863 0.0L78.32699619771863 54.51116901996806L0.0 54.51116901996806Z" stroke="none" stroke-width="0.0" stroke-dasharray="none" opacity="1.0" fill="none"/><g id="ProcessOnG1165" transform="matrix(1.0,0.0,0.0,1.0,10.0,11.005584509984029)"><text id="ProcessOnText1166" fill="#000000" font-size="26" x="28.163498098859314" y="26.65" font-family="微软雅黑" font-weight="normal" font-style="normal" text-decoration="none" family="微软雅黑" text-anchor="middle" size="26">-</text></g></g><g id="ProcessOnG1167" transform="matrix(1.0,0.0,0.0,1.0,542.7553122857521,514.8108640667419)" opacity="1.0"><path id="ProcessOnPath1168" d="M0.0 0.0L78.32699619771863 0.0L78.32699619771863 54.51116901996806L0.0 54.51116901996806Z" stroke="none" stroke-width="0.0" stroke-dasharray="none" opacity="1.0" fill="none"/><g id="ProcessOnG1169" transform="matrix(1.0,0.0,0.0,1.0,10.0,11.005584509984029)"><text id="ProcessOnText1170" fill="#000000" font-size="26" x="28.163498098859314" y="26.65" font-family="微软雅黑" font-weight="normal" font-style="normal" text-decoration="none" family="微软雅黑" text-anchor="middle" size="26">+</text></g></g><g id="ProcessOnG1171" transform="matrix(1.0,0.0,0.0,1.0,492.6724658031179,513.7418857086843)" opacity="1.0"><path id="ProcessOnPath1172" d="M0.0 0.0L78.32699619771863 0.0L78.32699619771863 54.51116901996806L0.0 54.51116901996806Z" stroke="none" stroke-width="0.0" stroke-dasharray="none" opacity="1.0" fill="none"/><g id="ProcessOnG1173" transform="matrix(1.0,0.0,0.0,1.0,10.0,11.005584509984029)"><text id="ProcessOnText1174" fill="#000000" font-size="26" x="28.163498098859314" y="26.65" font-family="微软雅黑" font-weight="normal" font-style="normal" text-decoration="none" family="微软雅黑" text-anchor="middle" size="26">+</text></g></g><g id="ProcessOnG1175" transform="matrix(1.0,0.0,0.0,1.0,196.25,368.0218212751255)" opacity="1.0"><path id="ProcessOnPath1176" d="M0.0 0.0L82.76493104409508 0.0L82.76493104409508 51.97817872487451L0.0 51.97817872487451Z" stroke="#323232" stroke-width="1.0" stroke-dasharray="none" opacity="1.0" fill="none"/><g id="ProcessOnG1177" transform="matrix(1.0,0.0,0.0,1.0,10.0,16.614089362437255)"><text id="ProcessOnText1178" fill="#000000" font-size="15" x="30.38246552204754" y="15.375" font-family="微软雅黑" font-weight="normal" font-style="normal" text-decoration="none" family="微软雅黑" text-anchor="middle" size="15">TN(left)</text></g></g><g id="ProcessOnG1179"><path id="ProcessOnPath1180" d="M279.0149310440951 394.01091063756274L289.37454581748983 384.84503958512266" stroke="#323232" stroke-width="2.0" stroke-dasharray="2.0 3.0" fill="none" marker-end="url(#ProcessOnMarker1181)"/></g><g id="ProcessOnG1183"><path id="ProcessOnPath1184" d="M635.7049370125325 374.0077954819352L620.9410049900323 374.0077954819352L620.9410049900323 338.0218212751255L237.63246552204743 338.0218212751255L237.63246552204743 368.0218212751255" stroke="#323232" stroke-width="2.0" stroke-dasharray="10.0 4.0" fill="none" marker-start="url(#ProcessOnMarker1185)"/></g><g id="ProcessOnG1187" transform="matrix(1.0,0.0,0.0,1.0,851.0733020811742,344.1075406929026)" opacity="1.0"><path id="ProcessOnPath1188" d="M0.0 0.0L91.42669791882577 0.0L91.42669791882577 58.28755705737626L0.0 58.28755705737626Z" stroke="#323232" stroke-width="1.0" stroke-dasharray="none" opacity="1.0" fill="none"/><g id="ProcessOnG1189" transform="matrix(1.0,0.0,0.0,1.0,10.0,19.76877852868813)"><text id="ProcessOnText1190" fill="#000000" font-size="15" x="34.71334895941288" y="15.375" font-family="微软雅黑" font-weight="normal" font-style="normal" text-decoration="none" family="微软雅黑" text-anchor="middle" size="15">TN(right)</text></g></g><g id="ProcessOnG1191"><path id="ProcessOnPath1192" d="M832.2802821171042 374.0077954819352L834.0587581103894 374.0077954819352L834.0587581103894 373.2513192215906L851.0733020811742 373.2513192215906" stroke="#323232" stroke-width="2.0" stroke-dasharray="2.0 3.0" fill="none" marker-start="url(#ProcessOnMarker1193)"/></g><g id="ProcessOnG1195"><path id="ProcessOnPath1196" d="M478.44660806509296 374.0077954819352L493.2105400875932 374.0077954819352L493.2105400875932 314.1075406929026L896.7866510405871 314.1075406929026L896.7866510405871 344.1075406929026" stroke="#323232" stroke-width="2.0" stroke-dasharray="10.0 4.0" fill="none" marker-start="url(#ProcessOnMarker1197)"/></g><g id="ProcessOnG1199"><path id="ProcessOnPath1200" d="M357.15087451701174 853.2783112050834L391.97672850589913 853.2783112050834L391.97672850589913 853.0161855063061L411.56651451728675 853.0161855063061" stroke="#323232" stroke-width="2.0" stroke-dasharray="10.0 4.0" fill="none" marker-end="url(#ProcessOnMarker1201)"/></g><g id="ProcessOnG1203"><path id="ProcessOnPath1204" d="M749.6246877340765 852.4811127020712L716.0542536169266 852.4811127020712L716.0542536169266 853.0161855063063L697.7198874772765 853.0161855063063" stroke="#323232" stroke-width="2.0" stroke-dasharray="10.0 4.0" fill="none" marker-end="url(#ProcessOnMarker1205)"/></g><g id="ProcessOnG1207" transform="matrix(1.0,0.0,0.0,1.0,877.5,156.25)" opacity="1.0"><path id="ProcessOnPath1208" d="M0.0 0.0L152.69188054566735 0.0L152.69188054566735 59.2166467764678L0.0 59.2166467764678Z" stroke="none" stroke-width="0.0" stroke-dasharray="none" opacity="1.0" fill="none"/><g id="ProcessOnG1209" transform="matrix(1.0,0.0,0.0,1.0,10.0,20.2333233882339)"><text id="ProcessOnText1210" fill="#3333ff" font-size="15" x="65.34594027283367" y="15.375" font-family="微软雅黑" font-weight="bold" font-style="normal" text-decoration="none" family="微软雅黑" text-anchor="middle" size="15">CPU1(Sterring)</text></g></g><g id="ProcessOnG1211" transform="matrix(1.0,0.0,0.0,1.0,881.484375,252.49999999999994)" opacity="1.0"><path id="ProcessOnPath1212" d="M0.0 0.0L150.19188054566735 0.0L150.19188054566735 61.121190299232126L0.0 61.121190299232126Z" stroke="none" stroke-width="0.0" stroke-dasharray="none" opacity="1.0" fill="none"/><g id="ProcessOnG1213" transform="matrix(1.0,0.0,0.0,1.0,10.0,21.185595149616063)"><text id="ProcessOnText1214" fill="#cc6600" font-size="15" x="64.09594027283367" y="15.375" font-family="微软雅黑" font-weight="bold" font-style="normal" text-decoration="none" family="微软雅黑" text-anchor="middle" size="15">CPU4(Memory)</text></g></g><g id="ProcessOnG1215" transform="matrix(1.0,0.0,0.0,1.0,894.6836712199974,466.0702137745469)" opacity="1.0"><path id="ProcessOnPath1216" d="M0.0 0.0L137.69570932566984 0.0L137.69570932566984 61.73350005629618L0.0 61.73350005629618Z" stroke="none" stroke-width="0.0" stroke-dasharray="none" opacity="1.0" fill="none"/><g id="ProcessOnG1217" transform="matrix(1.0,0.0,0.0,1.0,10.0,21.49175002814809)"><text id="ProcessOnText1218" fill="#8a8a8a" font-size="15" x="57.84785466283492" y="15.375" font-family="微软雅黑" font-weight="bold" font-style="normal" text-decoration="none" family="微软雅黑" text-anchor="middle" size="15">TB(Compass)</text></g></g><g id="ProcessOnG1219" transform="matrix(1.0,0.0,0.0,1.0,339.72332131642577,815.5479277747768)" opacity="1.0"><path id="ProcessOnPath1220" d="M0.0 0.0L78.32699619771863 0.0L78.32699619771863 54.51116901996806L0.0 54.51116901996806Z" stroke="none" stroke-width="0.0" stroke-dasharray="none" opacity="1.0" fill="none"/><g id="ProcessOnG1221" transform="matrix(1.0,0.0,0.0,1.0,10.0,11.005584509984029)"><text id="ProcessOnText1222" fill="#000000" font-size="26" x="28.163498098859314" y="26.65" font-family="微软雅黑" font-weight="normal" font-style="normal" text-decoration="none" family="微软雅黑" text-anchor="middle" size="26">+</text></g></g><g id="ProcessOnG1223" transform="matrix(1.0,0.0,0.0,1.0,683.4733213164258,814.0463874463535)" opacity="1.0"><path id="ProcessOnPath1224" d="M0.0 0.0L78.32699619771863 0.0L78.32699619771863 54.51116901996806L0.0 54.51116901996806Z" stroke="none" stroke-width="0.0" stroke-dasharray="none" opacity="1.0" fill="none"/><g id="ProcessOnG1225" transform="matrix(1.0,0.0,0.0,1.0,10.0,11.005584509984029)"><text id="ProcessOnText1226" fill="#000000" font-size="26" x="28.163498098859314" y="26.65" font-family="微软雅黑" font-weight="normal" font-style="normal" text-decoration="none" family="微软雅黑" text-anchor="middle" size="26">+</text></g></g><g id="ProcessOnG1227" transform="matrix(1.0,0.0,0.0,1.0,789.0983213164258,328.5749234124358)" opacity="1.0"><path id="ProcessOnPath1228" d="M0.0 0.0L78.32699619771863 0.0L78.32699619771863 54.51116901996806L0.0 54.51116901996806Z" stroke="none" stroke-width="0.0" stroke-dasharray="none" opacity="1.0" fill="none"/><g id="ProcessOnG1229" transform="matrix(1.0,0.0,0.0,1.0,10.0,11.005584509984029)"><text id="ProcessOnText1230" fill="#000000" font-size="26" x="28.163498098859314" y="26.65" font-family="微软雅黑" font-weight="normal" font-style="normal" text-decoration="none" family="微软雅黑" text-anchor="middle" size="26">+</text></g></g><g id="ProcessOnG1231" transform="matrix(1.0,0.0,0.0,1.0,251.21334032783267,333.3636314303162)" opacity="1.0"><path id="ProcessOnPath1232" d="M0.0 0.0L78.32699619771863 0.0L78.32699619771863 54.51116901996806L0.0 54.51116901996806Z" stroke="none" stroke-width="0.0" stroke-dasharray="none" opacity="1.0" fill="none"/><g id="ProcessOnG1233" transform="matrix(1.0,0.0,0.0,1.0,10.0,11.005584509984029)"><text id="ProcessOnText1234" fill="#000000" font-size="26" x="28.163498098859314" y="26.65" font-family="微软雅黑" font-weight="normal" font-style="normal" text-decoration="none" family="微软雅黑" text-anchor="middle" size="26">+</text></g></g><g id="ProcessOnG1235" transform="matrix(1.0,0.0,0.0,1.0,434.5748617214068,329.1569534822039)" opacity="1.0"><path id="ProcessOnPath1236" d="M0.0 0.0L78.32699619771863 0.0L78.32699619771863 54.51116901996806L0.0 54.51116901996806Z" stroke="none" stroke-width="0.0" stroke-dasharray="none" opacity="1.0" fill="none"/><g id="ProcessOnG1237" transform="matrix(1.0,0.0,0.0,1.0,10.0,11.005584509984029)"><text id="ProcessOnText1238" fill="#000000" font-size="26" x="28.163498098859314" y="26.65" font-family="微软雅黑" font-weight="normal" font-style="normal" text-decoration="none" family="微软雅黑" text-anchor="middle" size="26">+</text></g></g><g id="ProcessOnG1239" transform="matrix(1.0,0.0,0.0,1.0,601.5894188027389,334.4912797061719)" opacity="1.0"><path id="ProcessOnPath1240" d="M0.0 0.0L78.32699619771863 0.0L78.32699619771863 54.51116901996806L0.0 54.51116901996806Z" stroke="none" stroke-width="0.0" stroke-dasharray="none" opacity="1.0" fill="none"/><g id="ProcessOnG1241" transform="matrix(1.0,0.0,0.0,1.0,10.0,11.005584509984029)"><text id="ProcessOnText1242" fill="#000000" font-size="26" x="28.163498098859314" y="26.65" font-family="微软雅黑" font-weight="normal" font-style="normal" text-decoration="none" family="微软雅黑" text-anchor="middle" size="26">+</text></g></g><g id="ProcessOnG1243" transform="matrix(1.0,0.0,0.0,1.0,31.015686612415493,689.1378310253076)" opacity="1.0"><path id="ProcessOnPath1244" d="M0.0 0.0L279.6186442460651 0.0L279.6186442460651 40.59826555477457L0.0 40.59826555477457Z" stroke="none" stroke-width="0.0" stroke-dasharray="none" opacity="1.0" fill="none"/><g id="ProcessOnG1245" transform="matrix(1.0,0.0,0.0,1.0,10.0,9.049132777387285)"><text id="ProcessOnText1246" fill="#000000" font-size="18" x="0.0" y="18.45" font-family="Times New Roman" font-weight="normal" font-style="normal" text-decoration="none" family="Times New Roman" text-anchor="start" size="18">I_tl = cos(preference   - heading)</text></g></g><g id="ProcessOnG1247"><path id="ProcessOnPath1248" d="M606.2320754764507 501.0194788026528L636.5305387024487 501.90572851721" stroke="#323232" stroke-width="2.0" stroke-dasharray="none" fill="none" marker-start="url(#ProcessOnMarker1249)"/></g><g id="ProcessOnG1251" transform="matrix(1.0,0.0,0.0,1.0,636.5305387024487,466.0298602040492)" opacity="0.2"><path id="ProcessOnPath1252" d="M0.0 35.87586831316092C0.0 -11.95862277105364 71.20810737678728 -11.95862277105364 71.20810737678728 35.87586831316092C71.20810737678728 83.71035939737548 0.0 83.71035939737548 0.0 35.87586831316092Z" stroke="#000000" stroke-width="2.0" stroke-dasharray="10.0 4.0" opacity="1.0" fill="#8a8a8a"/></g><g id="ProcessOnG1253" transform="matrix(6.123233995736766E-17,1.0,-1.0,6.123233995736766E-17,708.3623431992537,492.57807733611656)" opacity="0.2"><path id="ProcessOnPath1254" d="M10.0 0.0L20.0 10.0L13.4 10.0L13.4 35.65552948487709L6.6000000000000005 35.65552948487709L6.6000000000000005 10.0L0.0 10.0L10.0 0.0Z" stroke="#323232" stroke-width="2.0" stroke-dasharray="none" opacity="1.0" fill="#000000"/></g><g id="ProcessOnG1255" transform="matrix(-0.7071067811865475,0.7071067811865476,-0.7071067811865476,-0.7071067811865475,705.7529800527861,520.1093631464677)" opacity="0.2"><path id="ProcessOnPath1256" d="M10.0 0.0L20.0 10.0L13.4 10.0L13.4 37.54135839240064L6.6000000000000005 37.54135839240064L6.6000000000000005 10.0L0.0 10.0L10.0 0.0Z" stroke="#323232" stroke-width="2.0" stroke-dasharray="none" opacity="1.0" fill="#000000"/></g><g id="ProcessOnG1257" transform="matrix(-1.0,1.2246467991473532E-16,-1.2246467991473532E-16,-1.0,681.7948159007315,536.2500000000002)" opacity="0.2"><path id="ProcessOnPath1258" d="M10.0 0.0L20.0 10.0L13.4 10.0L13.4 40.39458400834474L6.6000000000000005 40.39458400834474L6.6000000000000005 10.0L0.0 10.0L10.0 0.0Z" stroke="#323232" stroke-width="2.0" stroke-dasharray="none" opacity="1.0" fill="#000000"/></g><g id="ProcessOnG1259" transform="matrix(-1.8369701987210297E-16,-1.0,1.0,-1.8369701987210297E-16,636.3339742159209,512.3686555912976)" opacity="0.2"><path id="ProcessOnPath1260" d="M10.0 0.0L20.0 10.0L13.4 10.0L13.4 35.65552948487709L6.6000000000000005 35.65552948487709L6.6000000000000005 10.0L0.0 10.0L10.0 0.0Z" stroke="#323232" stroke-width="2.0" stroke-dasharray="none" opacity="1.0" fill="#000000"/></g><g id="ProcessOnG1261" transform="matrix(-0.7071067811865477,-0.7071067811865475,0.7071067811865475,-0.7071067811865477,654.3979750914922,533.4065184466526)" opacity="0.2"><path id="ProcessOnPath1262" d="M10.0 0.0L20.0 10.0L13.4 10.0L13.4 35.65552948487709L6.6000000000000005 35.65552948487709L6.6000000000000005 10.0L0.0 10.0L10.0 0.0Z" stroke="#323232" stroke-width="2.0" stroke-dasharray="none" opacity="1.0" fill="#000000"/></g><g id="ProcessOnG1263" transform="matrix(1.0,0.0,0.0,1.0,565.3350472419039,455.0716061778547)" opacity="1.0"><path id="ProcessOnPath1264" d="M0.0 0.0L78.32699619771863 0.0L78.32699619771863 54.51116901996806L0.0 54.51116901996806Z" stroke="none" stroke-width="0.0" stroke-dasharray="none" opacity="1.0" fill="none"/><g id="ProcessOnG1265" transform="matrix(1.0,0.0,0.0,1.0,10.0,11.005584509984029)"><text id="ProcessOnText1266" fill="#000000" font-size="26" x="28.163498098859314" y="26.65" font-family="微软雅黑" font-weight="normal" font-style="normal" text-decoration="none" family="微软雅黑" text-anchor="middle" size="26">-</text></g></g><g id="ProcessOnG1267" transform="matrix(1.0,0.0,0.0,1.0,600.8347902690887,519.1616449227068)" opacity="1.0"><path id="ProcessOnPath1268" d="M0.0 0.0L150.0 0.0L150.0 49.26330926037235L0.0 49.26330926037235Z" stroke="none" stroke-width="0.0" stroke-dasharray="none" opacity="1.0" fill="none"/><g id="ProcessOnG1269" transform="matrix(1.0,0.0,0.0,1.0,10.0,15.256654630186176)"><text id="ProcessOnText1270" fill="#000000" font-size="15" x="64.0" y="15.375" font-family="微软雅黑" font-weight="normal" font-style="normal" text-decoration="none" family="微软雅黑" text-anchor="middle" size="15">Other 5 TB cells</text></g></g><g id="ProcessOnG1271" transform="matrix(1.0,0.0,0.0,1.0,900.9336712199974,576.4300139464927)" opacity="1.0"><path id="ProcessOnPath1272" d="M0.0 0.0L137.69570932566984 0.0L137.69570932566984 61.73350005629618L0.0 61.73350005629618Z" stroke="none" stroke-width="0.0" stroke-dasharray="none" opacity="1.0" fill="none"/><g id="ProcessOnG1273" transform="matrix(1.0,0.0,0.0,1.0,10.0,21.49175002814809)"><text id="ProcessOnText1274" fill="#8a8a8a" font-size="15" x="57.84785466283492" y="15.375" font-family="微软雅黑" font-weight="bold" font-style="normal" text-decoration="none" family="微软雅黑" text-anchor="middle" size="15">CL1(Compass)</text></g></g><g id="ProcessOnG1275" transform="matrix(1.0,0.0,0.0,1.0,898.5899212199973,678.5702137745468)" opacity="1.0"><path id="ProcessOnPath1276" d="M0.0 0.0L137.69570932566984 0.0L137.69570932566984 61.73350005629618L0.0 61.73350005629618Z" stroke="none" stroke-width="0.0" stroke-dasharray="none" opacity="1.0" fill="none"/><g id="ProcessOnG1277" transform="matrix(1.0,0.0,0.0,1.0,10.0,21.49175002814809)"><text id="ProcessOnText1278" fill="#8a8a8a" font-size="15" x="57.84785466283492" y="15.375" font-family="微软雅黑" font-weight="bold" font-style="normal" text-decoration="none" family="微软雅黑" text-anchor="middle" size="15">TL(Compass)</text></g></g><g id="ProcessOnG1279" transform="matrix(1.0,0.0,0.0,1.0,899.0586712199973,818.9975452551994)" opacity="1.0"><path id="ProcessOnPath1280" d="M0.0 0.0L137.69570932566984 0.0L137.69570932566984 61.73350005629618L0.0 61.73350005629618Z" stroke="none" stroke-width="0.0" stroke-dasharray="none" opacity="1.0" fill="none"/><g id="ProcessOnG1281" transform="matrix(1.0,0.0,0.0,1.0,10.0,21.49175002814809)"><text id="ProcessOnText1282" fill="#006600" font-size="15" x="57.84785466283492" y="15.375" font-family="微软雅黑" font-weight="bold" font-style="normal" text-decoration="none" family="微软雅黑" text-anchor="middle" size="15">TN(Speed)</text></g></g><g id="ProcessOnG1283" transform="matrix(1.0,0.0,0.0,1.0,28.63041346839526,588.8621284542802)" opacity="1.0"><path id="ProcessOnPath1284" d="M0.0 0.0L110.24074131676099 0.0L110.24074131676099 36.86927104072129L0.0 36.86927104072129Z" stroke="none" stroke-width="0.0" stroke-dasharray="none" opacity="1.0" fill="none"/><g id="ProcessOnG1285" transform="matrix(1.0,0.0,0.0,1.0,10.0,7.184635520360644)"><text id="ProcessOnText1286" fill="#000000" font-size="18" x="0.0" y="18.45" font-family="Times New Roman" font-weight="normal" font-style="normal" text-decoration="none" family="Times New Roman" text-anchor="start" size="18">I_cl = -r_tl</text></g></g><g id="ProcessOnG1287" transform="matrix(1.0,0.0,0.0,1.0,22.35977815002815,467.26997989630934)" opacity="1.0"><path id="ProcessOnPath1288" d="M0.0 0.0L257.2360966298744 0.0L257.2360966298744 64.28710213813952L0.0 64.28710213813952Z" stroke="none" stroke-width="0.0" stroke-dasharray="none" opacity="1.0" fill="none"/><g id="ProcessOnG1289" transform="matrix(1.0,0.0,0.0,1.0,10.0,9.643551069069758)"><text id="ProcessOnText1290" fill="#000000" font-size="18" x="0.0" y="18.45" font-family="Times New Roman" font-weight="normal" font-style="normal" text-decoration="none" family="Times New Roman" text-anchor="start" size="18">I_tb = (1-c)*r_cl + c*inhibition_</text><text id="ProcessOnText1291" fill="#000000" font-size="18" x="0.0" y="40.95" font-family="Times New Roman" font-weight="normal" font-style="normal" text-decoration="none" family="Times New Roman" text-anchor="start" size="18">from_other_TB</text></g></g><g id="ProcessOnG1292" transform="matrix(1.0,0.0,0.0,1.0,18.386287807097787,310.65034497814287)" opacity="1.0"><path id="ProcessOnPath1293" d="M0.0 0.0L217.8637121929022 0.0L217.8637121929022 61.029151391280834L0.0 61.029151391280834Z" stroke="none" stroke-width="0.0" stroke-dasharray="none" opacity="1.0" fill="none"/><g id="ProcessOnG1294" transform="matrix(1.0,0.0,0.0,1.0,10.0,8.014575695640417)"><text id="ProcessOnText1295" fill="#000000" font-size="18" x="0.0" y="18.45" font-family="Times New Roman" font-weight="normal" font-style="normal" text-decoration="none" family="Times New Roman" text-anchor="start" size="18">cpu4_mem = cpu4_mem' </text><text id="ProcessOnText1296" fill="#000000" font-size="18" x="0.0" y="40.95" font-family="Times New Roman" font-weight="normal" font-style="normal" text-decoration="none" family="Times New Roman" text-anchor="start" size="18">+ h(r_tn - r_tb - k)</text></g></g><g id="ProcessOnG1297" transform="matrix(1.0,0.0,0.0,1.0,19.53342860511401,173.52481579308107)" opacity="1.0"><path id="ProcessOnPath1298" d="M0.0 0.0L226.48493545815273 0.0L226.48493545815273 33.975184206918925L0.0 33.975184206918925Z" stroke="none" stroke-width="0.0" stroke-dasharray="none" opacity="1.0" fill="none"/><g id="ProcessOnG1299" transform="matrix(1.0,0.0,0.0,1.0,10.0,5.737592103459463)"><text id="ProcessOnText1300" fill="#000000" font-size="18" x="0.0" y="18.45" font-family="Times New Roman" font-weight="normal" font-style="normal" text-decoration="none" family="Times New Roman" text-anchor="start" size="18">I_cpu1 = cpu4_mem - r_tb</text></g></g><g id="ProcessOnG1301" transform="matrix(1.0,0.0,0.0,1.0,30.55515712073901,844.0618539645585)" opacity="1.0"><path id="ProcessOnPath1302" d="M0.0 0.0L215.46320694252773 0.0L215.46320694252773 36.669191346937055L0.0 36.669191346937055Z" stroke="none" stroke-width="0.0" stroke-dasharray="none" opacity="1.0" fill="none"/><g id="ProcessOnG1303" transform="matrix(1.0,0.0,0.0,1.0,10.0,7.084595673468527)"><text id="ProcessOnText1304" fill="#000000" font-size="18" x="96.73160347126387" y="18.45" font-family="Times New Roman" font-weight="normal" font-style="normal" text-decoration="none" family="Times New Roman" text-anchor="middle" size="18">r_tn2 = max(0, 2I_in -1 )</text></g></g></g></g></svg>